<svg width="512" height="353" viewBox="0 0 512 353" fill="none" xmlns="http://www.w3.org/2000/svg">
<path d="M376 353H116C83.63 353 55.77 344.43 35.41 328.23C12.24 309.78 0 282.39 0 249C0 191.43 42 158.42 87.56 148.25C90.5569 147.567 93.2936 146.035 95.443 143.838C97.5923 141.641 99.0633 138.871 99.68 135.86C107.36 99.18 124.13 67.71 148.86 43.86C177.644 16.1886 216.073 0.815469 256 0.999994C291.5 0.999994 324.24 12.69 350.68 34.8C368.753 50.0445 383.131 69.192 392.73 90.8C393.763 93.1194 395.332 95.1598 397.309 96.7526C399.286 98.3453 401.614 99.4448 404.1 99.96C431.1 105.57 455.17 117.29 473.28 133.81C498.61 156.88 512 188.42 512 225C512 261 497.62 293.88 471.51 317.59C446.36 340.43 412.44 353 376 353Z" fill="#EAF0F8"/>
<path d="M376 353H116C83.63 353 55.77 344.43 35.41 328.23C12.24 309.78 0 282.39 0 249C0 191.43 42 158.42 87.56 148.25C90.5569 147.567 93.2936 146.035 95.443 143.838C97.5923 141.641 99.0633 138.871 99.68 135.86C107.36 99.18 124.13 67.71 148.86 43.86C177.644 16.1886 216.073 0.815469 256 0.999994C291.5 0.999994 324.24 12.69 350.68 34.8C368.753 50.0445 383.131 69.192 392.73 90.8C393.763 93.1194 395.332 95.1598 397.309 96.7526C399.286 98.3453 401.614 99.4448 404.1 99.96C431.1 105.57 455.17 117.29 473.28 133.81C498.61 156.88 512 188.42 512 225C512 261 497.62 293.88 471.51 317.59C446.36 340.43 412.44 353 376 353Z" fill="url(#paint0_linear)"/>
<defs>
<linearGradient id="paint0_linear" x1="277" y1="191.5" x2="256" y2="353" gradientUnits="userSpaceOnUse">
<stop stop-color="white"/>
<stop offset="1" stop-color="white" stop-opacity="0"/>
</linearGradient>
</defs>
</svg>
